# xmcd
#
# Track frame offsets:
#	187
#	25545
#	49687
#	66602
#	83625
#	111427
#	133640
#	163635
#
# Disc length: 2477 seconds
#
# Revision: 6
# Processed by: cddbd v1.5.2PL0 Copyright (c) Steve Scherf et al.
# Submitted via: EasyCDDAExtractor 15.3.0.1
#
DISCID=6609ab08
DTITLE=Madonna
DYEAR=1983
DGENRE=Pop
TTITLE0=Lucky Star
TTITLE1=Borderline
TTITLE2=Burning Up
TTITLE3=I Know It
TTITLE4=Holiday
TTITLE5=Think Of Me
TTITLE6=Physical Attraction
TTITLE7=Everybody
EXTD=ID3G:  17
EXTT0=
EXTT1=
EXTT2=
EXTT3=
EXTT4=
EXTT5=
EXTT6=
EXTT7=
PLAYORDER=
